<svg width="46" height="46" viewBox="0 0 46 46" fill="none" xmlns="http://www.w3.org/2000/svg">
<path d="M39 36.5H39.5V36V34C39.5 26.5442 33.4558 20.5 26 20.5H20C12.5442 20.5 6.5 26.5442 6.5 34V36V36.5H7H39ZM45.5 23C45.5 35.4264 35.4264 45.5 23 45.5C10.5736 45.5 0.5 35.4264 0.5 23C0.5 10.5736 10.5736 0.5 23 0.5C35.4264 0.5 45.5 10.5736 45.5 23ZM29.5 12C29.5 15.5899 26.5899 18.5 23 18.5C19.4101 18.5 16.5 15.5899 16.5 12C16.5 8.41015 19.4101 5.5 23 5.5C26.5899 5.5 29.5 8.41015 29.5 12ZM23 19.5C27.1421 19.5 30.5 16.1421 30.5 12C30.5 7.85786 27.1421 4.5 23 4.5C18.8579 4.5 15.5 7.85786 15.5 12C15.5 16.1421 18.8579 19.5 23 19.5ZM38.5 34V35.5H7.5V34C7.5 27.0964 13.0964 21.5 20 21.5H26C32.9036 21.5 38.5 27.0964 38.5 34Z" stroke="black"/>
</svg>
